<svg width="668" height="668" viewBox="0 0 668 668" fill="none" xmlns="http://www.w3.org/2000/svg">
<path d="M444 306.333C444 315.333 444 324.333 444 334C444 343.666 444 352.666 444 361.666H594V306.333H444Z" fill="#8875FF"/>
<path d="M262.667 130.333H167.333V186H298.334C288.319 166.308 276.371 147.661 262.667 130.333Z" fill="#3F51B5"/>
<path d="M300.667 482H187.333V537.667H263.667C277.716 520.31 290.103 501.673 300.667 482Z" fill="#3F51B5"/>
<path d="M334 334C334.514 324.785 334.514 315.548 334 306.333H84V361.666H334C334.514 352.451 334.514 343.215 334 334Z" fill="#8875FF"/>
<path d="M56.3335 350C53.1557 350.066 50.0301 349.184 47.3554 347.467C44.6808 345.749 42.5782 343.274 41.3159 340.357C40.0537 337.44 39.6889 334.213 40.2681 331.088C40.8473 327.962 42.3442 325.08 44.568 322.809C46.7918 320.538 49.6417 318.981 52.7541 318.336C55.8666 317.691 59.1005 317.988 62.0436 319.188C64.9867 320.389 67.5055 322.439 69.2788 325.077C71.0521 327.715 71.9995 330.821 72.0002 334C72.0011 338.186 70.3612 342.206 67.4324 345.197C64.5035 348.188 60.519 349.912 56.3335 350ZM56.3335 278.333C45.3097 278.267 34.5146 281.476 25.3165 287.552C16.1184 293.629 8.93162 302.299 4.66718 312.465C0.402742 322.631 -0.747309 333.834 1.36281 344.654C3.47293 355.474 8.7482 365.424 16.5199 373.243C24.2916 381.061 34.2097 386.396 45.017 388.571C55.8243 390.746 67.034 389.663 77.2252 385.46C87.4164 381.257 96.1301 374.122 102.262 364.961C108.393 355.799 111.667 345.024 111.667 334C111.667 319.294 105.848 305.185 95.4805 294.755C85.113 284.325 71.0394 278.421 56.3335 278.333Z" fill="#8875FF"/>
<path d="M139.667 525.666C136.489 525.733 133.364 524.851 130.689 523.133C128.014 521.416 125.912 518.941 124.649 516.024C123.387 513.107 123.022 509.88 123.602 506.754C124.181 503.629 125.678 500.747 127.901 498.476C130.125 496.205 132.975 494.647 136.088 494.003C139.2 493.358 142.434 493.655 145.377 494.855C148.32 496.056 150.839 498.106 152.612 500.744C154.386 503.381 155.333 506.488 155.334 509.666C155.378 511.752 155.006 513.825 154.238 515.764C153.471 517.704 152.324 519.47 150.865 520.96C149.405 522.451 147.663 523.635 145.74 524.443C143.818 525.251 141.753 525.667 139.667 525.666ZM139.667 454.333C128.629 454.267 117.821 457.484 108.615 463.576C99.4102 469.667 92.2237 478.357 87.9692 488.543C83.7147 498.728 82.5842 509.948 84.7215 520.777C86.8587 531.606 92.1672 541.556 99.9724 549.361C107.778 557.166 117.727 562.475 128.556 564.612C139.385 566.749 150.606 565.619 160.791 561.364C170.976 557.11 179.667 549.923 185.758 540.718C191.849 531.513 195.066 520.704 195 509.666C194.913 495.018 189.055 480.995 178.697 470.636C168.339 460.278 154.315 454.42 139.667 454.333Z" fill="#3F51B5"/>
<path d="M139.667 174C136.475 174.066 133.336 173.175 130.655 171.443C127.973 169.71 125.871 167.215 124.619 164.278C123.367 161.342 123.022 158.097 123.628 154.963C124.235 151.828 125.766 148.947 128.023 146.69C130.281 144.432 133.162 142.902 136.296 142.295C139.431 141.688 142.675 142.033 145.612 143.285C148.549 144.537 151.044 146.639 152.776 149.321C154.509 152.003 155.399 155.141 155.334 158.333C155.334 162.488 153.683 166.473 150.745 169.411C147.807 172.349 143.822 174 139.667 174ZM139.667 102.667C132.017 102.073 124.327 103.068 117.079 105.588C109.832 108.108 103.184 112.099 97.5526 117.311C91.9212 122.523 87.4279 128.842 84.355 135.873C81.2821 142.904 79.6958 150.494 79.6958 158.167C79.6958 165.84 81.2821 173.43 84.355 180.461C87.4279 187.491 91.9212 193.811 97.5526 199.022C103.184 204.234 109.832 208.225 117.079 210.745C124.327 213.265 132.017 214.26 139.667 213.667C153.643 212.583 166.697 206.265 176.218 195.976C185.74 185.688 191.029 172.185 191.029 158.167C191.029 144.148 185.74 130.646 176.218 120.357C166.697 110.068 153.643 103.751 139.667 102.667Z" fill="#3F51B5"/>
<path d="M556.333 417.333V250.667L667.333 334L556.333 417.333Z" fill="#8875FF"/>
<path d="M250.667 667.333L222 617.333C265.419 583.952 300.593 541.045 324.808 491.921C349.023 442.797 361.634 388.768 361.667 334C361.199 279.274 348.363 225.363 324.119 176.298C299.876 127.233 264.852 84.2851 221.667 50.6665L250.667 0.666504C302.358 39.5315 344.318 89.8692 373.24 147.713C402.162 205.558 417.256 269.328 417.334 334C417.438 398.704 402.423 462.537 373.486 520.409C344.55 578.282 302.492 628.594 250.667 667.333Z" fill="#363853"/>
</svg>
