<svg width="724" height="521" viewBox="0 0 724 521" fill="none" xmlns="http://www.w3.org/2000/svg">
<path d="M724 470.28H0V470.639H724V470.28Z" fill="#EBEBEB"/>
<path d="M651.455 483.955H519.832V484.314H651.455V483.955Z" fill="#EBEBEB"/>
<path d="M479.606 480.062H443.565V480.422H479.606V480.062Z" fill="#EBEBEB"/>
<path d="M561.983 497.299H506.105V497.658H561.983V497.299Z" fill="#EBEBEB"/>
<path d="M108.745 494.885H75.9624V495.245H108.745V494.885Z" fill="#EBEBEB"/>
<path d="M160.57 494.885H121.633V495.245H160.57V494.885Z" fill="#EBEBEB"/>
<path d="M326.017 488.824H258.192V489.183H326.017V488.824Z" fill="#EBEBEB"/>
<path d="M343.176 406.216H63.5812C61.3909 406.213 59.2916 405.347 57.7442 403.809C56.1967 402.271 55.3276 400.187 55.3276 398.014V8.13007C55.3467 5.96975 56.2242 3.90413 57.7696 2.38188C59.315 0.85963 61.4034 0.00370075 63.5812 0H343.176C345.368 0 347.471 0.864126 349.022 2.40228C350.573 3.94043 351.444 6.02661 351.444 8.20189V398.014C351.444 400.19 350.573 402.276 349.022 403.814C347.471 405.352 345.368 406.216 343.176 406.216V406.216ZM63.5812 0.287283C61.4869 0.291088 59.4797 1.11906 58.0002 2.58945C56.5206 4.05985 55.6896 6.05252 55.6896 8.13007V398.014C55.6896 400.092 56.5206 402.085 58.0002 403.555C59.4797 405.025 61.4869 405.853 63.5812 405.857H343.176C345.271 405.853 347.28 405.026 348.762 403.556C350.244 402.086 351.078 400.093 351.082 398.014V8.13007C351.078 6.0512 350.244 4.05856 348.762 2.58858C347.28 1.11859 345.271 0.29108 343.176 0.287283H63.5812Z" fill="#EBEBEB"/>
<path d="M656.393 406.216H376.784C374.593 406.213 372.492 405.347 370.942 403.81C369.392 402.273 368.52 400.189 368.516 398.014V8.13007C368.539 5.96844 369.42 3.90283 370.967 2.38098C372.515 0.859128 374.605 0.00366039 376.784 0H656.393C658.568 0.00747578 660.653 0.865076 662.195 2.38692C663.738 3.90876 664.613 5.97223 664.632 8.13007V398.014C664.632 400.185 663.765 402.267 662.221 403.804C660.676 405.341 658.581 406.209 656.393 406.216V406.216ZM376.784 0.287283C374.689 0.29108 372.68 1.11859 371.198 2.58858C369.716 4.05856 368.882 6.0512 368.878 8.13007V398.014C368.882 400.093 369.716 402.086 371.198 403.556C372.68 405.026 374.689 405.853 376.784 405.857H656.393C658.489 405.853 660.497 405.026 661.979 403.556C663.461 402.086 664.295 400.093 664.299 398.014V8.13007C664.295 6.0512 663.461 4.05856 661.979 2.58858C660.497 1.11859 658.489 0.29108 656.393 0.287283H376.784Z" fill="#EBEBEB"/>
<path d="M75.9484 470.266H249.071L249.071 90.4648H75.9484L75.9484 470.266Z" fill="#F0F0F0"/>
<path d="M75.9623 470.266H240.875L240.875 90.4648H75.9623L75.9623 470.266Z" fill="#F5F5F5"/>
<path d="M232.187 461.662L232.187 99.0981L84.6498 99.0981L84.6498 461.662H232.187Z" fill="#F0F0F0"/>
<path d="M132.318 270.045H102.243C101.219 270.041 100.238 269.636 99.5135 268.918C98.7893 268.199 98.3808 267.226 98.377 266.21V266.21C98.3808 265.194 98.7893 264.221 99.5135 263.502C100.238 262.784 101.219 262.379 102.243 262.375H132.318C133.342 262.379 134.323 262.784 135.048 263.502C135.772 264.221 136.18 265.194 136.184 266.21V266.21C136.18 267.226 135.772 268.199 135.048 268.918C134.323 269.636 133.342 270.041 132.318 270.045Z" fill="white"/>
<path d="M86.9087 461.662L86.9087 99.0981H84.6498L84.6498 461.662H86.9087Z" fill="#F0F0F0"/>
<path d="M330.188 463.07H355.962V352.179H330.188V463.07Z" fill="#F0F0F0"/>
<path d="M223.904 470.108H351.01V463.084H223.904V470.108Z" fill="#F0F0F0"/>
<path d="M330.188 352.193H218.952V463.083H330.188V352.193Z" fill="#F5F5F5"/>
<path d="M320.037 365.839H229.073V402.209H320.037V365.839Z" fill="#F0F0F0"/>
<path d="M320.037 413.054H229.073V449.424H320.037V413.054Z" fill="#F0F0F0"/>
<path d="M264.346 368.899H284.778C285.441 368.895 286.076 368.632 286.545 368.167C287.014 367.702 287.279 367.072 287.283 366.414C287.283 365.753 287.019 365.12 286.55 364.652C286.08 364.183 285.443 363.918 284.778 363.915H264.346C263.681 363.918 263.043 364.183 262.574 364.652C262.105 365.12 261.841 365.753 261.841 366.414V366.414C261.845 367.072 262.11 367.702 262.579 368.167C263.048 368.632 263.683 368.895 264.346 368.899V368.899Z" fill="#F5F5F5"/>
<path d="M264.346 416.128H284.778C285.433 416.124 286.062 415.867 286.53 415.411C286.997 414.955 287.268 414.336 287.283 413.686V413.686C287.279 413.028 287.014 412.398 286.545 411.933C286.076 411.467 285.441 411.204 284.778 411.201H264.346C263.683 411.204 263.048 411.467 262.579 411.933C262.11 412.398 261.845 413.028 261.841 413.686V413.686C261.856 414.336 262.126 414.955 262.594 415.411C263.062 415.867 263.691 416.124 264.346 416.128V416.128Z" fill="#F5F5F5"/>
<path d="M283.04 350.01C282.535 350.006 282.051 349.805 281.693 349.451C281.335 349.096 281.133 348.616 281.129 348.114V290.5C281.129 289.997 281.33 289.514 281.689 289.159C282.047 288.803 282.533 288.604 283.04 288.604V288.604C283.546 288.607 284.03 288.808 284.388 289.163C284.745 289.518 284.948 289.998 284.952 290.5V348.114C284.948 348.616 284.745 349.096 284.388 349.451C284.03 349.805 283.546 350.006 283.04 350.01V350.01Z" fill="#F5F5F5"/>
<path d="M300.924 347.769H265.159V352.236H300.924V347.769Z" fill="#F0F0F0"/>
<path d="M292.945 315.536C292.694 315.536 292.454 315.438 292.275 315.263C292.096 315.089 291.994 314.851 291.99 314.602V285.845C291.993 285.595 292.095 285.356 292.274 285.179C292.452 285.002 292.693 284.901 292.945 284.897C293.198 284.901 293.439 285.002 293.617 285.179C293.795 285.356 293.897 285.595 293.901 285.845V314.574C293.903 314.699 293.88 314.824 293.833 314.941C293.785 315.058 293.715 315.164 293.626 315.253C293.537 315.343 293.431 315.414 293.315 315.463C293.198 315.511 293.072 315.536 292.945 315.536Z" fill="#F0F0F0"/>
<path d="M255.224 295.756C255.224 295.756 255.934 268.608 283.04 268.608C310.147 268.608 310.842 295.728 310.842 295.728L255.224 295.756Z" fill="#F0F0F0"/>
<path d="M489.873 334.108C490.64 334.108 491.422 334.108 492.204 334.18C500.213 334.754 507.743 338.18 513.408 343.826C519.073 349.471 522.491 356.957 523.032 364.905C523.261 368.516 522.899 372.139 521.96 375.635C518.33 389.657 516.578 404.093 516.748 418.569V460.714C516.749 461.443 516.606 462.166 516.325 462.841C516.043 463.515 515.631 464.128 515.11 464.643C514.589 465.159 513.97 465.567 513.289 465.844C512.609 466.121 511.88 466.262 511.144 466.258H376.292V334.108H489.873Z" fill="#F0F0F0"/>
<path d="M343.06 367.074C343.074 362.389 344.095 357.76 346.056 353.497C348.017 349.233 350.871 345.434 354.43 342.352C357.988 339.27 362.168 336.977 366.691 335.625C371.213 334.272 375.975 333.893 380.657 334.51C385.34 335.128 389.835 336.73 393.844 339.208C397.853 341.686 401.283 344.984 403.905 348.882C406.528 352.779 408.282 357.187 409.051 361.81C409.82 366.433 409.586 371.166 408.364 375.693C404.746 389.717 402.999 404.152 403.166 418.627V460.771C403.166 461.499 403.021 462.219 402.74 462.891C402.459 463.563 402.047 464.173 401.528 464.687C401.009 465.201 400.393 465.608 399.715 465.885C399.037 466.162 398.31 466.303 397.577 466.302H354.991C354.259 466.302 353.534 466.158 352.858 465.881C352.181 465.603 351.567 465.195 351.049 464.682C350.531 464.168 350.121 463.559 349.841 462.888C349.56 462.217 349.416 461.498 349.416 460.771V416.099C349.539 402.523 347.805 388.993 344.261 375.88C343.463 373.012 343.059 370.05 343.06 367.074V367.074Z" fill="#F5F5F5"/>
<path d="M422.078 466.258H543.145V386.021H422.078V466.258Z" fill="#F0F0F0"/>
<path d="M643.202 404.177H481.156V281.12C481.156 274.506 483.805 268.164 488.519 263.487C493.233 258.811 499.627 256.184 506.294 256.184H618.065C624.732 256.184 631.125 258.811 635.84 263.487C640.554 268.164 643.202 274.506 643.202 281.12V404.177Z" fill="#E0E0E0"/>
<path d="M611.534 404.177H449.488V279.913C449.488 273.616 452.01 267.576 456.499 263.124C460.987 258.671 467.075 256.169 473.423 256.169H587.54C593.888 256.169 599.976 258.671 604.465 263.124C608.954 267.576 611.476 273.616 611.476 279.913V404.177H611.534Z" fill="#F5F5F5"/>
<path d="M535.238 411.373L423.641 411.373C421.721 411.373 419.879 410.616 418.522 409.269C417.164 407.922 416.401 406.096 416.401 404.191V385.991C416.401 384.087 417.164 382.26 418.522 380.913C419.879 379.566 421.721 378.809 423.641 378.809H535.238C535.818 378.809 536.374 379.038 536.784 379.445C537.194 379.851 537.425 380.403 537.425 380.978V409.218C537.421 409.791 537.189 410.339 536.779 410.743C536.37 411.146 535.816 411.373 535.238 411.373Z" fill="#E0E0E0"/>
<path d="M655.147 334.108C655.915 334.108 656.682 334.108 657.479 334.18C665.485 334.758 673.012 338.184 678.674 343.83C684.336 349.475 687.751 356.96 688.292 364.905C688.535 368.516 688.173 372.142 687.22 375.635C683.589 389.662 681.837 404.102 682.008 418.584V460.728C682.008 461.455 681.863 462.176 681.582 462.847C681.301 463.519 680.889 464.13 680.37 464.643C679.851 465.157 679.234 465.564 678.556 465.841C677.878 466.118 677.152 466.26 676.418 466.258H541.552V334.108H655.147Z" fill="#F0F0F0"/>
<path d="M508.334 367.074C508.276 358.483 511.602 350.209 517.604 344.016C523.606 337.823 531.809 334.199 540.464 333.918C549.12 333.637 557.544 336.721 563.941 342.512C570.338 348.303 574.203 356.343 574.711 364.92C574.939 368.53 574.578 372.154 573.639 375.65C570.009 389.672 568.256 404.107 568.426 418.584V460.728C568.426 462.195 567.839 463.601 566.793 464.638C565.748 465.676 564.33 466.258 562.851 466.258H520.251C519.519 466.258 518.794 466.115 518.118 465.837C517.442 465.559 516.827 465.152 516.309 464.638C515.792 464.125 515.381 463.515 515.101 462.844C514.821 462.173 514.677 461.454 514.677 460.728V416.099C514.797 402.524 513.068 388.995 509.536 375.879C508.738 373.011 508.333 370.049 508.334 367.074Z" fill="#F5F5F5"/>
<path d="M378.651 470.28H652.772C653.304 470.28 653.83 470.176 654.322 469.974C654.813 469.772 655.259 469.475 655.634 469.101C656.009 468.728 656.307 468.284 656.509 467.796C656.711 467.308 656.814 466.786 656.812 466.258H374.611C374.609 466.786 374.713 467.308 374.915 467.796C375.117 468.284 375.414 468.728 375.789 469.101C376.165 469.475 376.611 469.772 377.102 469.974C377.593 470.176 378.12 470.28 378.651 470.28Z" fill="#E0E0E0"/>
<path d="M541.002 162.127H629.17V66.7353L541.002 66.7353V162.127Z" fill="#E0E0E0"/>
<path d="M535.746 162.127H626.202V66.7353L535.746 66.7353V162.127Z" fill="#F5F5F5"/>
<path d="M618.615 154.615V74.248H543.305V154.615H618.615Z" fill="white"/>
<path d="M580.968 94.1135L601.558 129.507H560.377L580.968 94.1135Z" fill="#F5F5F5"/>
<path d="M417.314 217.817H505.482V122.425L417.314 122.425V217.817Z" fill="#E0E0E0"/>
<path d="M412.057 217.817H502.514V122.425L412.057 122.425V217.817Z" fill="#F5F5F5"/>
<path d="M494.927 210.305V129.938H419.616V210.305H494.927Z" fill="white"/>
<path d="M448.069 184.449L439.135 169.094C438.205 167.491 437.717 165.674 437.719 163.825C437.721 161.976 438.213 160.16 439.146 158.56C440.079 156.959 441.42 155.63 443.035 154.705C444.649 153.781 446.48 153.294 448.344 153.294H466.256C468.119 153.296 469.95 153.784 471.563 154.708C473.177 155.632 474.518 156.961 475.452 158.561C476.386 160.16 476.88 161.975 476.885 163.824C476.89 165.672 476.405 167.49 475.48 169.094L466.545 184.449C465.614 186.064 464.269 187.406 462.647 188.34C461.025 189.273 459.183 189.765 457.307 189.765C455.432 189.765 453.59 189.273 451.967 188.34C450.345 187.406 449 186.064 448.069 184.449V184.449Z" fill="#F5F5F5"/>
<path d="M458.293 63.6323H124.5L146.466 514.578H480.259L458.293 63.6323Z" fill="#D7D7D7"/>
<path opacity="0.2" d="M458.293 63.6323H124.5L146.466 514.578H480.259L458.293 63.6323Z" fill="black"/>
<path d="M461.376 63.6323H127.583L149.564 514.578H483.357L461.376 63.6323Z" fill="#D7D7D7"/>
<path opacity="0.2" d="M443.754 78.8015H142.845L163.87 494.197L425.524 493.852L469.007 455.615L443.754 78.8015Z" fill="black"/>
<path d="M446.056 78.7869C449.265 203.189 459.392 327.321 476.392 450.616C452.548 466.895 428.825 483.174 405.223 499.453H180.175C158.933 360.137 146.466 219.642 142.845 78.7869H446.056Z" fill="white"/>
<path d="M476.393 450.616C452.55 466.895 428.827 483.174 405.224 499.454C410.379 477.908 415.751 456.362 421.34 434.815L476.393 450.616Z" fill="#EBEBEB"/>
<path d="M224.441 116.794C225.01 132.001 225.676 147.217 226.439 162.443H180.436C179.664 147.217 178.998 132.001 178.438 116.794H224.441ZM229.132 111.982H173.413C174.06 130.397 174.866 148.821 175.831 167.255H231.565C230.599 148.831 229.793 130.407 229.147 111.982H229.132Z" fill="#D7D7D7"/>
<path d="M412.421 133.931H254.85C254.705 130.498 254.575 127.05 254.444 123.617H412.001C412.132 127.05 412.276 130.498 412.421 133.931Z" fill="#E0E0E0"/>
<path d="M379.131 155.62H255.819C255.66 152.173 255.486 148.74 255.341 145.307H378.638C378.803 148.744 378.967 152.182 379.131 155.62Z" fill="#E0E0E0"/>
<path d="M228.958 206.197C229.923 221.422 231 236.648 232.187 251.874H186.17C184.982 236.648 183.906 221.422 182.941 206.197H228.958ZM233.505 201.385H177.786C178.925 219.818 180.223 238.252 181.681 256.686H237.472C236.024 238.262 234.721 219.828 233.563 201.385H233.505Z" fill="#D7D7D7"/>
<path d="M317.692 223.347H259.772C259.541 219.899 259.294 216.466 259.077 213.019H316.997C317.214 216.466 317.446 219.899 317.692 223.347Z" fill="#E0E0E0"/>
<path d="M372.529 223.347H329.943C329.711 219.899 329.465 216.466 329.248 213.019H371.834C372.051 216.466 372.283 219.899 372.529 223.347Z" fill="#E0E0E0"/>
<path d="M399.258 245.051H261.365C261.104 241.604 260.858 238.171 260.597 234.724H398.49C398.751 238.171 398.997 241.604 399.258 245.051Z" fill="#E0E0E0"/>
<path d="M235.866 295.642C237.247 310.867 238.733 326.093 240.326 341.319H194.309C192.716 326.093 191.229 310.867 189.849 295.642H235.866ZM240.297 290.83H184.563C186.205 309.273 188 327.712 189.95 346.146H245.684C243.753 327.702 241.957 309.263 240.297 290.83V290.83Z" fill="#D7D7D7"/>
<path d="M425.858 324.183H268.272L269.315 334.496H426.9L425.858 324.183Z" fill="#E0E0E0"/>
<path d="M389.512 302.479H266.201C266.519 305.912 266.838 309.359 267.171 312.792H390.468C390.149 309.359 389.816 305.955 389.512 302.479Z" fill="#E0E0E0"/>
<path d="M245.177 385.086C246.973 400.312 248.869 415.533 250.868 430.75H204.85C202.852 415.543 200.955 400.322 199.16 385.086H245.177ZM249.521 380.274H193.744C195.868 398.718 198.161 417.147 200.622 435.562H256.298C253.855 417.147 251.563 398.718 249.42 380.274H249.521Z" fill="#D7D7D7"/>
<path d="M434.531 402.194H276.945C276.526 398.747 276.106 395.314 275.7 391.866H433.272C433.691 395.357 434.097 398.79 434.531 402.194Z" fill="#E0E0E0"/>
<path d="M351.416 423.927H279.682C279.234 420.494 278.799 417.047 278.365 413.614H350.099C350.533 417.047 350.967 420.494 351.416 423.927Z" fill="#E0E0E0"/>
<path d="M394.248 423.927H363.276C362.827 420.494 362.392 417.047 361.958 413.614H392.931C393.365 417.047 393.857 420.494 394.248 423.927Z" fill="#E0E0E0"/>
<path d="M204.17 155.922L202.128 152.704C197.668 145.666 188.575 139.389 185.433 137.55L187.778 133.428C193.943 137.141 199.451 141.834 204.083 147.318C211.091 137.852 221.459 128.07 235.649 117.555L238.647 121.434C223.501 132.681 212.901 142.98 206.211 152.891L204.17 155.922Z" fill="#D7D7D7"/>
<path d="M209.672 245.353L207.543 242.135C202.909 235.097 193.642 228.806 190.457 226.967L192.672 222.844C198.954 226.559 204.592 231.254 209.367 236.749C216.115 227.269 226.208 217.487 240.123 206.958C241.151 208.251 242.194 209.543 243.222 210.85C228.38 222.112 218.055 232.397 211.641 242.322C210.975 243.328 210.323 244.347 209.672 245.353Z" fill="#D7D7D7"/>
<path d="M217.664 335.028L215.449 331.81C210.612 324.772 201.171 318.481 197.942 316.656C198.637 315.22 199.39 313.898 200.056 312.534C206.437 316.255 212.192 320.941 217.114 326.424C223.615 316.944 233.447 307.176 247.059 296.633L250.273 300.525C235.793 311.787 225.657 322.072 219.532 331.997L217.664 335.028Z" fill="#D7D7D7"/>
<path d="M363.636 474.676C355.093 474.676 350.17 471.544 345.826 468.786C341.482 466.028 337.746 463.644 330.535 463.644C323.324 463.644 320.11 466.143 316.707 468.786C313.304 471.429 309.134 474.676 300.59 474.676C292.047 474.676 287.124 471.544 282.795 468.786C278.465 466.028 274.729 463.644 267.504 463.644C260.278 463.644 257.078 466.143 253.675 468.786C250.273 471.429 246.102 474.676 237.574 474.676C229.045 474.676 224.107 471.544 219.763 468.786C215.419 466.028 211.698 463.644 204.472 463.644C204.284 462.208 204.081 460.886 203.893 459.507C212.436 459.507 217.345 462.638 221.689 465.396C226.033 468.154 229.754 470.539 236.965 470.539C244.176 470.539 247.391 468.039 250.794 465.396C254.197 462.753 258.381 459.507 266.924 459.507C275.468 459.507 280.362 462.638 284.706 465.396C289.05 468.154 292.786 470.539 299.997 470.539C307.208 470.539 310.422 468.039 313.825 465.396C317.228 462.753 321.413 459.507 329.956 459.507C338.499 459.507 343.408 462.638 347.752 465.396C352.096 468.154 355.817 470.539 363.043 470.539C363.231 471.918 363.448 473.297 363.636 474.676Z" fill="#EBEBEB"/>
<path d="M375.887 74.7936C370.992 61.8659 359.684 53.3768 347.52 53.3768H322.731C320.885 53.3608 319.085 52.8078 317.554 51.7865C316.022 50.7651 314.826 49.3203 314.115 47.6311C312.363 43.5026 309.432 39.972 305.684 37.4736C301.936 34.9753 297.533 33.618 293.018 33.5687C288.649 33.5247 284.381 34.8649 280.834 37.3942C277.287 39.9235 274.646 43.5098 273.296 47.6311C272.746 49.3174 271.666 50.7848 270.215 51.8186C268.764 52.8524 267.017 53.3985 265.231 53.3768H240.455C228.278 53.3768 217.794 61.909 214.174 74.7936L212.726 79.9216H377.798L375.887 74.7936Z" fill="#8687E7"/>
<path d="M376.77 84.978H214.305C212.935 84.9622 211.621 84.4316 210.63 83.4934C209.638 82.5551 209.042 81.2788 208.962 79.9218V79.9218C208.926 79.2698 209.025 78.6175 209.254 78.0051C209.482 77.3926 209.834 76.833 210.288 76.3607C210.743 75.8883 211.29 75.5133 211.896 75.2586C212.502 75.004 213.154 74.8751 213.812 74.88H376.278C377.646 74.8956 378.957 75.4241 379.948 76.3594C380.939 77.2947 381.537 78.5674 381.621 79.9218C381.659 80.575 381.561 81.2288 381.334 81.843C381.106 82.4572 380.755 83.0185 380.3 83.4924C379.845 83.9663 379.298 84.3427 378.69 84.5982C378.083 84.8537 377.43 84.983 376.77 84.978V84.978Z" fill="#BCBDFF"/>
<path opacity="0.2" d="M376.77 84.978H214.305C212.935 84.9622 211.621 84.4316 210.63 83.4934C209.638 82.5551 209.042 81.2788 208.962 79.9218V79.9218C208.926 79.2698 209.025 78.6175 209.254 78.0051C209.482 77.3926 209.834 76.833 210.288 76.3607C210.743 75.8883 211.29 75.5133 211.896 75.2586C212.502 75.004 213.154 74.8751 213.812 74.88H376.278C377.646 74.8956 378.957 75.4241 379.948 76.3594C380.939 77.2947 381.537 78.5674 381.621 79.9218C381.659 80.575 381.561 81.2288 381.334 81.843C381.106 82.4572 380.755 83.0185 380.3 83.4924C379.845 83.9663 379.298 84.3427 378.69 84.5982C378.083 84.8537 377.43 84.983 376.77 84.978V84.978Z" fill="black"/>
<path d="M522.611 510.256H511.997L510.94 485.88H521.554L522.611 510.256Z" fill="#FFC3BD"/>
<path d="M586.309 510.256H575.695L570.367 485.88H580.966L586.309 510.256Z" fill="#FFC3BD"/>
<path d="M574.943 509.035H586.86C587.07 509.034 587.274 509.105 587.438 509.236C587.601 509.367 587.714 509.549 587.758 509.753L589.857 519.119C589.905 519.346 589.901 519.581 589.845 519.806C589.789 520.031 589.682 520.242 589.534 520.421C589.385 520.6 589.198 520.744 588.986 520.842C588.773 520.939 588.542 520.989 588.308 520.986C584.152 520.914 582.125 520.67 576.883 520.67C573.654 520.67 567.008 521 562.562 521C558.117 521 557.523 516.691 559.348 516.246C567.529 514.465 570.599 512.023 573.22 509.682C573.696 509.265 574.308 509.035 574.943 509.035V509.035Z" fill="#263238"/>
<path d="M512.071 509.035H523.655C523.865 509.034 524.069 509.105 524.232 509.236C524.396 509.367 524.509 509.549 524.552 509.753L526.652 519.119C526.703 519.338 526.705 519.566 526.657 519.787C526.609 520.007 526.512 520.214 526.374 520.392C526.235 520.571 526.058 520.717 525.856 520.82C525.654 520.922 525.431 520.979 525.204 520.986C521.019 520.914 514.981 520.67 509.725 520.67C503.585 520.67 498.286 521 491.075 521C486.731 521 485.514 516.691 487.339 516.246C495.636 514.436 502.412 514.249 509.58 509.854C510.322 509.365 511.182 509.082 512.071 509.035Z" fill="#263238"/>
<path d="M532.863 126.289C531.415 133.988 530.575 143.526 536.005 148.669C536.005 148.669 532.892 156.483 518.469 156.483C505.293 156.483 511.896 148.669 511.896 148.669C520.584 146.614 520.091 135.999 518.585 129.995L532.863 126.289Z" fill="#FFC3BD"/>
<path d="M507.756 149.746C508.045 147.835 511.434 145.609 515.285 144.776C519.137 143.943 533.936 142.09 538.453 143.943C542.971 145.796 537.672 151.283 537.672 151.283L507.756 149.746Z" fill="#D7D7D7"/>
<path opacity="0.4" d="M507.756 149.746C508.045 147.835 511.434 145.609 515.285 144.776C519.137 143.943 533.936 142.09 538.453 143.943C542.971 145.796 537.672 151.283 537.672 151.283L507.756 149.746Z" fill="white"/>
<path opacity="0.2" d="M510.94 485.895L511.491 498.449H522.105L521.554 485.895H510.94Z" fill="black"/>
<path opacity="0.2" d="M580.981 485.895H570.367L573.118 498.449H583.732L580.981 485.895Z" fill="black"/>
<path d="M557.986 158.149L545.2 166.624C545.2 166.624 563.561 199.015 562.026 204.201C559.926 211.268 557.001 226.709 553.019 234.552C553.541 236.247 556.191 240.111 557.668 240.772C567.804 233.13 578.041 209.171 577.664 202.463C576.781 187.251 557.986 158.149 557.986 158.149Z" fill="#FFC3BD"/>
<path d="M553.019 234.58L542.883 233.805L548.197 244.879C548.197 244.879 557.044 245.267 558.521 238.559L553.019 234.58Z" fill="#B55B52"/>
<path d="M603.12 288.59L602.266 290.184L596.532 300.943L392.972 194.174L399.546 181.821L603.12 288.59Z" fill="#D7D7D7"/>
<path d="M616.283 263.926L612.084 271.797L609.709 276.25L406.135 169.482L412.709 157.129L616.283 263.926Z" fill="#D7D7D7"/>
<path d="M406.202 169.446L399.614 181.784L603.105 288.709L609.693 276.372L406.202 169.446Z" fill="#D7D7D7"/>
<path opacity="0.2" d="M406.202 169.446L399.614 181.784L603.105 288.709L609.693 276.372L406.202 169.446Z" fill="black"/>
<path d="M384.198 158.767L378.275 169.885L392.973 194.174L412.709 157.144L384.198 158.767Z" fill="#D7D7D7"/>
<path opacity="0.8" d="M384.198 158.767L378.275 169.885L392.973 194.174L412.709 157.144L384.198 158.767Z" fill="white"/>
<path d="M371.976 159.47L378.275 169.884L384.197 158.766L371.976 159.47Z" fill="#D7D7D7"/>
<path d="M534.732 238.846L540.032 248.643L548.242 244.879L542.928 233.805L534.732 238.846Z" fill="#B55B52"/>
<path d="M554.946 151.053C564.981 152.49 576.478 186.964 576.478 186.964L555.395 198.771C555.395 198.771 546.113 182.424 541.552 170.215C536.745 157.445 544.187 149.502 554.946 151.053Z" fill="#8687E7"/>
<path opacity="0.2" d="M549.11 162.875C544.549 158.738 547.343 176.449 549.515 187.782C550.63 189.994 551.687 192.005 552.585 193.686C557.668 184.78 555.394 168.577 549.11 162.875Z" fill="black"/>
<path d="M495.52 151.599C495.52 151.599 482.995 183.373 494.883 242.553H551.688C552.079 233.934 546.605 191.761 555.004 151.053C548.73 149.852 542.384 149.055 536.006 148.669C527.976 148.209 519.926 148.209 511.897 148.669C506.368 149.217 500.893 150.197 495.52 151.599V151.599Z" fill="#8687E7"/>
<path d="M504.251 166.366L489.945 160.749C489.945 160.749 473.467 194.117 468.225 195.798C461.173 198.096 446.693 204.416 437.919 205.651C436.818 207.088 435.109 211.397 435.385 212.977C447.475 216.898 473.206 211.699 478.535 207.591C490.756 198.225 504.251 166.366 504.251 166.366Z" fill="#FFC3BD"/>
<path opacity="0.2" d="M505.858 162.573C503.498 157.173 498.98 154.917 494.274 155.707C492.449 162.329 489.365 176.88 489.93 198.8L493.304 200.409C493.304 200.409 509.898 171.81 505.858 162.573Z" fill="black"/>
<path d="M508.116 158.795C511.679 168.218 493.636 195.941 493.636 195.941L472.409 184.449C475.598 175.827 479.71 167.568 484.673 159.815C492.13 148.769 504.192 148.467 508.116 158.795Z" fill="#8687E7"/>
<path d="M438.44 205.622L425.813 208.28L432.214 219.871C435.743 218.13 438.95 215.808 441.698 213.005L438.44 205.622Z" fill="#FFC3BD"/>
<path d="M419.847 210.909L424.886 217.832L432.213 219.929L425.813 208.337L419.847 210.909Z" fill="#FFC3BD"/>
<path d="M508.797 115.215C508.797 116.063 508.262 116.651 507.697 116.651C507.132 116.651 506.727 115.905 506.785 115.057C506.843 114.21 507.321 113.621 507.885 113.621C508.45 113.621 508.855 114.368 508.797 115.215Z" fill="#263238"/>
<path d="M509.551 115.287C508.381 117.818 506.866 120.176 505.047 122.297C505.606 122.745 506.258 123.067 506.956 123.238C507.654 123.409 508.382 123.426 509.087 123.288L509.551 115.287Z" fill="#ED847E"/>
<path d="M507.712 112.284C507.635 112.268 507.561 112.239 507.494 112.198C507.438 112.163 507.39 112.117 507.352 112.063C507.314 112.009 507.288 111.948 507.274 111.884C507.26 111.819 507.26 111.753 507.273 111.689C507.286 111.624 507.312 111.563 507.35 111.509C507.769 110.836 508.344 110.272 509.026 109.862C509.708 109.453 510.478 109.21 511.274 109.153C511.406 109.16 511.531 109.215 511.624 109.308C511.718 109.401 511.774 109.524 511.781 109.656C511.781 109.789 511.727 109.917 511.632 110.011C511.537 110.105 511.408 110.158 511.274 110.158C510.656 110.215 510.061 110.415 509.535 110.742C509.009 111.069 508.568 111.514 508.247 112.04C508.195 112.131 508.115 112.204 508.019 112.247C507.923 112.291 507.815 112.304 507.712 112.284V112.284Z" fill="#263238"/>
<path d="M537.584 114.482C536.338 124.853 536.136 130.972 530.532 136.028C522.09 143.612 509.42 138.111 507.509 127.568C505.8 118.087 508.131 102.732 518.644 99.17C520.957 98.376 523.436 98.1816 525.846 98.6052C528.257 99.0288 530.518 100.056 532.415 101.59C534.312 103.124 535.783 105.114 536.688 107.37C537.592 109.626 537.901 112.074 537.584 114.482V114.482Z" fill="#FFC3BD"/>
<path d="M516.515 116.508C512.852 117.226 507.002 109.153 511.78 102.302C509.362 101.109 501.47 105.821 498.502 101.425C495.533 97.0299 503.773 94.6886 502.194 90.9683C507.784 92.103 498.574 99.0265 503.888 98.3514C509.203 97.6763 515.328 87.9374 521.264 91.9307C531.763 98.926 546.069 87.2623 540.233 101.871C547.386 100.434 552.281 108.823 545.461 114.64C531.864 126.203 540.233 127.726 531.618 128.315C527.303 128.631 517.268 123.532 516.515 116.508Z" fill="#263238"/>
<path d="M521.945 119.223C521.443 120.26 520.738 121.186 519.87 121.949C519.002 122.711 517.989 123.293 516.891 123.661C513.995 124.652 512.33 122.081 513.011 119.251C513.619 116.695 515.907 113.104 518.904 113.362C519.562 113.426 520.193 113.652 520.74 114.021C521.287 114.389 521.732 114.887 522.034 115.47C522.337 116.053 522.487 116.702 522.471 117.358C522.456 118.013 522.275 118.655 521.945 119.223Z" fill="#FFC3BD"/>
<path d="M515.01 242.552C515.01 242.552 527.057 322.991 533.66 353.156C540.9 386.193 568.166 496.064 568.166 496.064H587.598C587.598 496.064 569.628 388.822 565.487 356.144C561.013 320.693 551.63 242.596 551.63 242.596L515.01 242.552Z" fill="#D7D7D7"/>
<path opacity="0.2" d="M515.01 242.552C515.01 242.552 527.057 322.991 533.66 353.156C540.9 386.193 568.166 496.064 568.166 496.064H587.598C587.598 496.064 569.628 388.822 565.487 356.144C561.013 320.693 551.63 242.596 551.63 242.596L515.01 242.552Z" fill="white"/>
<path opacity="0.2" d="M529.316 270.677C528.418 269.413 527.607 268.982 526.854 269.241H526.695C526.524 269.315 526.363 269.412 526.217 269.528C526.063 269.652 525.922 269.792 525.797 269.945L525.565 270.232L525.261 270.706C525.01 271.124 524.792 271.561 524.61 272.013C524.494 272.286 524.378 272.573 524.277 272.861C524.175 273.148 524.016 273.593 523.9 273.995C523.784 274.398 523.567 275.087 523.408 275.676C523.408 275.834 523.336 275.978 523.292 276.136C523.249 276.294 523.133 276.796 523.06 277.127C522.988 277.457 522.93 277.701 522.872 277.989C522.742 278.549 522.626 279.138 522.51 279.741C522.394 280.344 522.264 281.048 522.148 281.723C522.148 281.953 522.076 282.183 522.032 282.427C521.888 283.289 521.757 284.165 521.627 285.07C524.841 305.094 528.664 328.048 531.763 344.064C531.908 343.546 532.067 343.001 532.197 342.412C532.83 339.74 533.313 337.035 533.645 334.31C536.382 313.669 535.122 278.908 529.316 270.677Z" fill="black"/>
<path d="M494.882 242.552C494.882 242.552 493.434 321.239 494.578 353.343C495.78 386.725 507.538 496.021 507.538 496.021H525.507C525.507 496.021 526.159 388.664 526.955 355.885C527.824 320.147 532.168 242.552 532.168 242.552H494.882Z" fill="#D7D7D7"/>
<path opacity="0.2" d="M494.882 242.552C494.882 242.552 493.434 321.239 494.578 353.343C495.78 386.725 507.538 496.021 507.538 496.021H525.507C525.507 496.021 526.159 388.664 526.955 355.885C527.824 320.147 532.168 242.552 532.168 242.552H494.882Z" fill="white"/>
<path d="M526.695 490.563C526.767 490.563 526.695 496.38 526.695 496.38H505.974L505.105 489.845L526.695 490.563Z" fill="#263238"/>
<path d="M587.597 490.994C587.684 490.994 588.568 496.38 588.568 496.38H567.21L565.327 490.204L587.597 490.994Z" fill="#263238"/>
<path d="M571.439 510.874C570.717 510.932 569.997 510.745 569.397 510.342C569.202 510.186 569.052 509.982 568.96 509.75C568.869 509.518 568.84 509.267 568.876 509.021C568.877 508.877 568.917 508.737 568.991 508.613C569.064 508.49 569.17 508.388 569.296 508.317C570.469 507.728 573.9 509.753 574.291 510.041C574.331 510.07 574.362 510.11 574.38 510.155C574.398 510.201 574.402 510.251 574.393 510.299C574.385 510.348 574.363 510.393 574.33 510.428C574.296 510.464 574.252 510.489 574.204 510.5C573.299 510.725 572.372 510.85 571.439 510.874ZM569.86 508.705C569.751 508.681 569.637 508.681 569.527 508.705C569.477 508.734 569.435 508.776 569.407 508.826C569.379 508.877 569.366 508.934 569.368 508.992C569.346 509.16 569.366 509.33 569.427 509.488C569.487 509.646 569.587 509.787 569.716 509.897C570.898 510.442 572.246 510.514 573.48 510.098C572.376 509.407 571.146 508.934 569.86 508.705Z" fill="#D7D7D7"/>
<path d="M574.145 510.515C574.107 510.527 574.067 510.527 574.029 510.515C572.929 509.926 570.814 507.642 571.032 506.449C571.069 506.267 571.168 506.103 571.313 505.985C571.458 505.867 571.64 505.803 571.828 505.803C572.019 505.775 572.214 505.788 572.399 505.843C572.584 505.897 572.755 505.992 572.9 506.119C574.13 507.11 574.348 510.155 574.348 510.285C574.346 510.329 574.336 510.373 574.316 510.412C574.296 510.452 574.267 510.487 574.232 510.515C574.203 510.52 574.174 510.52 574.145 510.515V510.515ZM572.002 506.205H571.958C571.625 506.205 571.596 506.392 571.582 506.464C571.452 507.153 572.798 508.891 573.899 509.71C573.823 508.513 573.384 507.366 572.639 506.421C572.546 506.342 572.437 506.284 572.32 506.252C572.202 506.219 572.079 506.213 571.958 506.234L572.002 506.205Z" fill="#D7D7D7"/>
<path d="M507.653 510.873C506.745 510.957 505.835 510.729 505.076 510.227C504.909 510.076 504.78 509.888 504.7 509.678C504.619 509.469 504.589 509.244 504.613 509.02C504.613 508.884 504.651 508.75 504.722 508.634C504.794 508.518 504.896 508.423 505.018 508.36C506.307 507.642 510.578 509.796 511.056 510.04C511.104 510.062 511.144 510.1 511.167 510.147C511.191 510.194 511.198 510.248 511.187 510.299C511.18 510.35 511.157 510.398 511.12 510.434C511.084 510.471 511.035 510.494 510.984 510.5C509.889 510.732 508.773 510.857 507.653 510.873V510.873ZM505.728 508.704C505.569 508.698 505.41 508.728 505.264 508.791C505.216 508.818 505.176 508.858 505.148 508.906C505.12 508.954 505.105 509.008 505.105 509.064C505.084 509.21 505.101 509.359 505.154 509.497C505.208 509.636 505.295 509.758 505.409 509.854C506.061 510.428 507.813 510.529 510.158 510.141C508.773 509.419 507.275 508.934 505.728 508.704V508.704Z" fill="#D7D7D7"/>
<path d="M510.94 510.514H510.839C509.55 509.94 507.016 507.642 507.219 506.478C507.219 506.205 507.465 505.846 508.146 505.789C508.403 505.751 508.666 505.768 508.916 505.84C509.165 505.912 509.397 506.037 509.594 506.205C510.94 507.311 511.216 510.141 511.23 510.27C511.236 510.312 511.23 510.355 511.212 510.393C511.194 510.431 511.165 510.464 511.129 510.486C511.072 510.519 511.005 510.529 510.94 510.514V510.514ZM508.348 506.205H508.247C507.798 506.205 507.769 506.421 507.755 506.493C507.639 507.196 509.362 508.992 510.651 509.768C510.526 508.561 510.019 507.425 509.203 506.521C508.956 506.338 508.657 506.237 508.348 506.234V506.205Z" fill="#D7D7D7"/>
</svg>
